World s Greatest Dad (2009) MPEG-4 (IPOD)

Verenigde Staten
Komedie
99 minuten

geregisseerd door Bob Goldthwait
met Robin Williams, Daryl Sabara en Tom Kenny

Het verhaal volgt Lance (Williams), een docent literatuur aan een hoge school, die de dood van zijn zoon (Sabara) door een uit de hand gelopen masturbatiestandje moet overwinnen. Hij schrijft een nep zelfmoordbrief, die zonder zijn toestemming wordt gepubliceerd en een heel eigen leven gaat leiden. Lance besluit daarop zijn eigen schrijverscarrière nieuw leven in te blazen door een nepdagboek te schrijven, dat hij toeschrijft aan zijn overleden zoon.

Robin Williams stars as Lance Clayton, a man who has learned to settle.  He dreamed of being a rich and famous writer, but has only managed to make it as a high school poetry teacher.  His only son Kyle (Daryl Sabara) is an insufferable jackass who won't give his father the time of day.  He is dating Claire (Alexie Gilmore), the school's adorable art teacher, but she doesn't want to get serious -- or even acknowledge publicly that they are dating.   Then, in the wake of a freak accident, Lance suffers the worst tragedy and greatest opportunity of his life. He is suddenly faced with the possibility of all the fame, fortune and popularity he ever dreamed of, if he can only live with the knowledge of how he got there. Written by


Bron : R5 (NTSC)
audio : English
Subs : Dutch (hardcoded)

Format                           : MPEG-4
Format profile                   : Base Media
Codec ID                         : isom
File size                        : 1.12 GiB
Duration                         : 1h 38mn
Overall bit rate                 : 1 633 Kbps


Video
ID                               : 1
Format                           : MPEG-4 Visual
Format profile                   : Simple@L1
Format settings, BVOP            : No
Format settings, QPel            : No
Format settings, GMC             : No warppoints
Format settings, Matrix          : Default (H.263)
Codec ID                         : 20
Duration                         : 1h 38mn
Bit rate mode                    : Variable
Bit rate                         : 1 500 Kbps
Width                            : 720 pixels
Height                           : 406 pixels
Display aspect ratio             : 16/9
Frame rate mode                  : Constant
Frame rate                       : 23.976 fps
Resolution                       : 24 bits
Colorimetry                      : 4:2:0
Scan type                        : Progressive
Bits/(Pixel*Frame)               : 0.214
Stream size                      : 1.03 GiB (92%)
Writing library                  : Lavc51.40.4


Audio
ID                               : 2
Format                           : AAC
Format/Info                      : Advanced Audio Codec
Format version                   : Version 4
Format profile                   : LC
Format settings, SBR             : No
Codec ID                         : 40
Duration                         : 1h 38mn
Bit rate mode                    : Variable
Bit rate                         : 128 Kbps
Channel(s)                       : 2 channels
Channel positions                : L R
Sampling rate                    : 48.0 KHz
Resolution                       : 16 bits
Stream size                      : 90.2 MiB (8%)


 
http://www.moviemeter.nl/film/54509 
http://www.imdb.com/title/tt1262981

***************************************** 

Brought to you by 
pioen 
2Lions Team 



meer zien?? 
Kom dan eens kijken op ons forum 
   
http://www.2lions.ons-forum.nl 

2Lions-Team for all your Dutch MOVIES and more 

***************************************** 

DON T HIT AND RUN Niet gelijk afhaken als de film binnen is blijf seeden.